<svg aria-hidden="true" style="position: absolute; width: 0; height: 0; overflow: hidden;" version="1.1" xmlns="http://www.w3.org/2000/svg" xmlns:xlink="http://www.w3.org/1999/xlink">
<defs>
<symbol id="icon-phone" viewBox="0 0 33 32">
<path d="M0.735 0.069h31.442v31.442h-31.442v-31.442z"></path>
</symbol>
<symbol id="icon-up-arrow" viewBox="0 0 10 32">
<path d="M4.541 31.228c0 0.358 0.29 0.649 0.649 0.649s0.649-0.29 0.649-0.649h-1.297zM5.648 0.499c-0.253-0.253-0.664-0.253-0.917 0l-4.128 4.128c-0.253 0.253-0.253 0.664 0 0.917s0.664 0.253 0.917 0l3.669-3.669 3.669 3.669c0.253 0.253 0.664 0.253 0.917 0s0.253-0.664 0-0.917l-4.128-4.128zM5.838 31.228v-30.27h-1.297v30.27h1.297z"></path>
</symbol>
<symbol id="icon-instagram" viewBox="0 0 32 32">
<path d="M0.558 0.1h31.332v31.332h-31.332v-31.332z"></path>
</symbol>
<symbol id="icon-left-arrow" viewBox="0 0 89 32">
<path d="M84.121 13.969c0.974 0 1.763 0.789 1.763 1.763s-0.789 1.763-1.763 1.763v-3.525zM0.619 16.978c-0.688-0.688-0.688-1.804 0-2.493l11.217-11.217c0.688-0.688 1.804-0.688 2.493 0s0.688 1.804 0 2.493l-9.971 9.971 9.971 9.971c0.688 0.688 0.688 1.804 0 2.493s-1.804 0.688-2.493 0l-11.217-11.217zM84.121 17.494h-82.256v-3.525h82.256v3.525z"></path>
</symbol>
<symbol id="icon-right-arrow" viewBox="0 0 100 32">
<path d="M4.016 13.34c-1.095 0-1.983 0.888-1.983 1.983s0.888 1.983 1.983 1.983v-3.966zM97.956 16.725c0.774-0.774 0.774-2.030 0-2.804l-12.62-12.619c-0.774-0.774-2.030-0.774-2.804 0s-0.774 2.030 0 2.804l11.217 11.217-11.217 11.217c-0.774 0.774-0.774 2.030 0 2.804s2.030 0.774 2.804 0l12.62-12.619zM4.016 17.306h92.537v-3.966h-92.537v3.966z"></path>
</symbol>
<symbol id="icon-star" viewBox="0 0 32 32">
<path d="M6.054 10.528c-0.819-1.039-0.17-2.572 1.145-2.703 0.975-0.097 1.657-1.011 1.476-1.975-0.243-1.299 1.043-2.356 2.267-1.86 0.908 0.368 1.937-0.123 2.224-1.061 0.387-1.263 2.017-1.6 2.87-0.591 0.633 0.748 1.771 0.793 2.46 0.097 0.929-0.939 2.529-0.477 2.817 0.813 0.214 0.957 1.201 1.526 2.134 1.23 1.258-0.399 2.459 0.756 2.116 2.032-0.255 0.947 0.355 1.911 1.319 2.083 1.3 0.233 1.827 1.814 0.932 2.784-0.665 0.72-0.573 1.857 0.201 2.459 1.043 0.812 0.778 2.457-0.466 2.899-0.923 0.328-1.368 1.378-0.962 2.272 0.547 1.204-0.45 2.538-1.757 2.349-0.97-0.139-1.851 0.584-1.906 1.563-0.074 1.319-1.576 2.037-2.646 1.262-0.794-0.575-1.91-0.345-2.412 0.496-0.677 1.133-2.341 1.070-2.929-0.114-0.436-0.878-1.53-1.195-2.366-0.684-1.126 0.689-2.569-0.144-2.54-1.465 0.021-0.98-0.801-1.77-1.779-1.706-1.317 0.085-2.207-1.324-1.569-2.48 0.473-0.858 0.112-1.94-0.783-2.339-1.207-0.538-1.342-2.199-0.24-2.926 0.818-0.54 1-1.666 0.392-2.436z"></path>
</symbol>
</defs>
</svg>
